<?xml version="1.0" encoding="UTF-8"?>
<svg version="1.1" xmlns="http://www.w3.org/2000/svg" width="192" height="192">
<path d="M0 0 C1.71110962 0.01353516 1.71110962 0.01353516 3.45678711 0.02734375 C23.5164858 0.43809336 41.37938458 8.03968129 56.1875 21.4375 C57.01507813 22.07042969 57.84265625 22.70335938 58.6953125 23.35546875 C61.47081391 25.67418701 63.56905365 28.16678167 65.8125 31 C68.57751672 34.56640694 68.57751672 34.56640694 71.68310547 37.82055664 C73.44875365 39.71829891 74.30461162 41.49487959 75.34375 43.8671875 C75.72539307 44.73778809 76.10703613 45.60838867 76.50024414 46.50537109 C86.89746364 71.08839182 88.68300166 94.70362359 78.8125 119.875 C74.86622911 128.68192163 69.81915103 137.36145999 63.1875 144.4375 C62.5275 144.4375 61.8675 144.4375 61.1875 144.4375 C60.8575 145.4275 60.5275 146.4175 60.1875 147.4375 C59.5275 147.4375 58.8675 147.4375 58.1875 147.4375 C57.8575 148.4275 57.5275 149.4175 57.1875 150.4375 C56.5275 150.4375 55.8675 150.4375 55.1875 150.4375 C55.1875 151.0975 55.1875 151.7575 55.1875 152.4375 C52.88665172 154.15714442 50.59088718 155.7482461 48.1875 157.3125 C47.53910156 157.74691406 46.89070312 158.18132812 46.22265625 158.62890625 C39.26140662 163.21919561 32.23183254 166.70293338 24.25 169.125 C23.19317017 169.44633911 23.19317017 169.44633911 22.11499023 169.77416992 C17.06474173 171.26481813 12.44054231 172.32348048 7.1875 172.4375 C5.91261719 172.47617188 4.63773437 172.51484375 3.32421875 172.5546875 C-14.92274622 172.93504793 -32.56159507 170.04101884 -47.8125 159.4375 C-48.60011719 158.89480469 -49.38773438 158.35210937 -50.19921875 157.79296875 C-54.24565815 154.89054887 -54.24565815 154.89054887 -55.8125 153.4375 C-55.8125 152.7775 -55.8125 152.1175 -55.8125 151.4375 C-56.39515625 151.18613281 -56.9778125 150.93476563 -57.578125 150.67578125 C-69.76624121 143.92117838 -76.58855431 126.89650261 -80.8125 114.4375 C-81.163125 113.47328125 -81.51375 112.5090625 -81.875 111.515625 C-82.92982366 108.05228731 -83.46789026 104.71416013 -83.9375 101.125 C-84.10507813 99.89136719 -84.27265625 98.65773438 -84.4453125 97.38671875 C-86.55149664 74.73403609 -80.6471467 50.24222821 -66.25 32.375 C-64.7946121 30.70810244 -63.3167874 29.06040505 -61.8125 27.4375 C-61.13445313 26.70273437 -60.45640625 25.96796875 -59.7578125 25.2109375 C-56.4529578 21.7689519 -56.4529578 21.7689519 -54.8125 20.4375 C-54.1525 20.4375 -53.4925 20.4375 -52.8125 20.4375 C-52.8125 19.7775 -52.8125 19.1175 -52.8125 18.4375 C-50.80120512 16.90916043 -48.81584046 15.53651117 -46.6875 14.1875 C-46.05730957 13.78708496 -45.42711914 13.38666992 -44.77783203 12.97412109 C-30.89486863 4.38220511 -16.35534541 -0.15605548 0 0 Z " fill="#EAE8E4" transform="translate(94.8125,11.5625)"/>
<path d="M0 0 C10.170505 8.67169374 17.01564134 19.27801259 20.16015625 32.33984375 C20.22203125 33.53609375 20.28390625 34.73234375 20.34765625 35.96484375 C20.44046875 37.48851563 20.44046875 37.48851563 20.53515625 39.04296875 C21.04912395 53.62680233 16.41288769 67.0112889 6.97265625 78.21484375 C5.78272758 79.48237647 4.57437547 80.73288214 3.34765625 81.96484375 C2.765 82.57070312 2.18234375 83.1765625 1.58203125 83.80078125 C-5.32575862 90.44735218 -14.13658567 95.24719719 -23.83984375 95.52734375 C-26.5078125 95.46875 -26.5078125 95.46875 -28.65234375 94.96484375 C-31.13620434 91.23905286 -31.03276495 89.37772973 -30.65234375 84.96484375 C-29.07229278 81.13945719 -27.88900456 80.08435878 -24.140625 78.19140625 C-22.75269197 77.64725261 -21.36051956 77.11381923 -19.96484375 76.58984375 C-7.88318524 71.64415925 -1.40555784 64.83607706 3.72265625 52.71484375 C6.0925235 38.49564022 3.56184772 27.62744579 -4.65234375 15.96484375 C-10.32996583 8.92347911 -17.83915605 4.6903949 -25.96484375 0.96484375 C-30.00381137 -0.98923168 -32.08095226 -3.3728714 -34.65234375 -7.03515625 C-35.14734375 -8.52015625 -35.14734375 -8.52015625 -35.65234375 -10.03515625 C-35.93207031 -9.51566406 -36.21179688 -8.99617188 -36.5 -8.4609375 C-40.23063733 -1.97130794 -44.24104441 1.98653468 -51.46484375 4.21484375 C-60.04607338 7.16412073 -66.93695777 15.46443292 -71.65234375 22.96484375 C-72.06484375 23.56941406 -72.47734375 24.17398438 -72.90234375 24.796875 C-77.65692495 33.16691899 -76.80966845 44.87930859 -75.0625 54.06640625 C-72.27951756 62.14603269 -65.51803146 70.16898695 -57.82421875 73.9609375 C-57.1075 74.29222656 -56.39078125 74.62351562 -55.65234375 74.96484375 C-53.82509969 75.88450293 -51.99796416 76.80438371 -50.17260742 77.7277832 C-47.34020537 79.15581681 -44.49655208 80.56049123 -41.65234375 81.96484375 C-41.56597656 81.32160156 -41.47960937 80.67835937 -41.390625 80.015625 C-40.17573628 72.20244158 -37.68611063 65.24820011 -34.65234375 57.96484375 C-34.98234375 57.96484375 -35.31234375 57.96484375 -35.65234375 57.96484375 C-36.02420397 51.89112679 -35.69585867 47.42218085 -32.65234375 41.96484375 C-30.49174422 39.58818426 -28.26813588 37.49569904 -25.83984375 35.40234375 C-24.22775612 33.76162829 -24.22775612 33.76162829 -24.65234375 29.96484375 C-30.95265851 33.1882606 -32.85932077 37.65018311 -35.65234375 43.96484375 C-36.31177399 45.30177082 -36.97585541 46.63646664 -37.65234375 47.96484375 C-38.02746094 47.38476562 -38.40257812 46.8046875 -38.7890625 46.20703125 C-41.84499006 41.54231563 -44.98771568 37.16838771 -48.65234375 32.96484375 C-47.66468392 37.24470302 -45.9542605 40.0051529 -43.21484375 43.33984375 C-39.90124513 47.43514726 -38.05412181 50.88339829 -36.65234375 55.96484375 C-37.14734375 57.44984375 -37.14734375 57.44984375 -37.65234375 58.96484375 C-37.97847656 58.33835937 -38.30460937 57.711875 -38.640625 57.06640625 C-39.07761719 56.24914062 -39.51460937 55.431875 -39.96484375 54.58984375 C-40.39410156 53.77773437 -40.82335937 52.965625 -41.265625 52.12890625 C-42.62013099 49.69650332 -42.62013099 49.69650332 -45.65234375 47.96484375 C-47.97622322 47.57096587 -50.31028124 47.2299829 -52.65234375 46.96484375 C-50.03573436 49.88928953 -48.3110259 51.75406546 -44.52734375 52.96484375 C-41.65234375 53.96484375 -41.65234375 53.96484375 -39.77734375 56.33984375 C-38.65234375 58.96484375 -38.65234375 58.96484375 -38.65234375 62.96484375 C-46.911397 62.70265158 -52.52931077 60.3487012 -58.2578125 54.2578125 C-63.82086784 47.03073474 -64.53376002 38.8242073 -63.65234375 29.96484375 C-61.91947323 22.24369915 -58.18327913 17.3472845 -51.65234375 12.96484375 C-43.98458072 8.76693712 -35.4835336 7.56197779 -26.95703125 9.61328125 C-19.29787964 12.35371164 -14.04907405 16.83983189 -10.21484375 24.02734375 C-7.49769287 30.95017164 -7.40571548 38.73664834 -9.5 45.83984375 C-12.77803887 53.12931325 -18.14123725 58.53668065 -25.40234375 61.90234375 C-28.65234375 62.96484375 -28.65234375 62.96484375 -32.65234375 62.96484375 C-33.81064504 68.61156253 -34.84125267 74.99257145 -32.65234375 80.46484375 C-31.58501174 83.13317377 -31.60763407 84.6307792 -31.71484375 87.46484375 C-31.78865608 91.50439121 -31.41929217 93.82896887 -28.65234375 96.96484375 C-16.9786131 104.74733085 -2.00376551 103.31235139 11.34765625 102.96484375 C11.01765625 103.62484375 10.68765625 104.28484375 10.34765625 104.96484375 C8.03100586 105.37548828 8.03100586 105.37548828 5 105.59765625 C3.92041016 105.68144531 2.84082031 105.76523438 1.72851562 105.8515625 C0.59220703 105.93019531 -0.54410156 106.00882812 -1.71484375 106.08984375 C-2.85501953 106.17621094 -3.99519531 106.26257813 -5.16992188 106.3515625 C-7.99687708 106.56447126 -10.82419801 106.76849297 -13.65234375 106.96484375 C-12.16734375 107.95484375 -12.16734375 107.95484375 -10.65234375 108.96484375 C-10.65234375 109.62484375 -10.65234375 110.28484375 -10.65234375 110.96484375 C-13.2895587 110.01251613 -15.43237826 109.13669179 -17.65234375 107.40234375 C-19.97697166 105.73151744 -21.84343434 105.35497006 -24.65234375 104.96484375 C-24.32234375 106.61484375 -23.99234375 108.26484375 -23.65234375 109.96484375 C-22.16734375 110.45984375 -22.16734375 110.45984375 -20.65234375 110.96484375 C-21.64234375 111.45984375 -21.64234375 111.45984375 -22.65234375 111.96484375 C-24.58984375 110.83984375 -24.58984375 110.83984375 -26.65234375 108.96484375 C-27.04998638 106.97663062 -27.39009724 104.97540036 -27.65234375 102.96484375 C-28.64234375 102.46984375 -28.64234375 102.46984375 -29.65234375 101.96484375 C-29.70132813 102.57972656 -29.7503125 103.19460937 -29.80078125 103.828125 C-29.87554687 104.63636719 -29.9503125 105.44460937 -30.02734375 106.27734375 C-30.09695312 107.07785156 -30.1665625 107.87835938 -30.23828125 108.703125 C-30.65234375 110.96484375 -30.65234375 110.96484375 -32.65234375 113.96484375 C-32.64074219 113.04960937 -32.62914062 112.134375 -32.6171875 111.19140625 C-32.60816406 110.00289063 -32.59914062 108.814375 -32.58984375 107.58984375 C-32.57824219 106.40648437 -32.56664062 105.223125 -32.5546875 104.00390625 C-32.43767782 101.04562854 -32.43767782 101.04562854 -33.65234375 98.96484375 C-35.13734375 109.35984375 -35.13734375 109.35984375 -36.65234375 119.96484375 C-37.31234375 119.63484375 -37.97234375 119.30484375 -38.65234375 118.96484375 C-38.99609375 116.8203125 -38.99609375 116.8203125 -39.15234375 114.15234375 C-39.36421302 110.56645639 -39.84582507 108.08982969 -41.65234375 104.96484375 C-42.64234375 105.29484375 -43.63234375 105.62484375 -44.65234375 105.96484375 C-44.94109375 106.60421875 -45.22984375 107.24359375 -45.52734375 107.90234375 C-47.04532984 110.68531824 -48.74452614 110.92101179 -51.65234375 111.96484375 C-51.98234375 112.62484375 -52.31234375 113.28484375 -52.65234375 113.96484375 C-52.65234375 112.97484375 -52.65234375 111.98484375 -52.65234375 110.96484375 C-51.84796875 110.49046875 -51.04359375 110.01609375 -50.21484375 109.52734375 C-47.48957875 108.2511796 -47.48957875 108.2511796 -46.9921875 105.8671875 C-46.88003906 105.23941406 -46.76789063 104.61164063 -46.65234375 103.96484375 C-48.26020152 104.55911763 -49.86352084 105.16567963 -51.46484375 105.77734375 C-52.35816406 106.11378906 -53.25148437 106.45023437 -54.171875 106.796875 C-56.57158447 107.92681694 -57.93657728 108.97546668 -59.65234375 110.96484375 C-61.13734375 110.46984375 -61.13734375 110.46984375 -62.65234375 109.96484375 C-61.33234375 108.64484375 -60.01234375 107.32484375 -58.65234375 105.96484375 C-59.833125 105.98804688 -61.01390625 106.01125 -62.23046875 106.03515625 C-63.78775408 106.05391872 -65.34504627 106.07211841 -66.90234375 106.08984375 C-67.67964844 106.10660156 -68.45695312 106.12335938 -69.2578125 106.140625 C-76.37665519 106.20146981 -76.37665519 106.20146981 -79.65234375 103.96484375 C-78.75515625 103.9390625 -77.85796875 103.91328125 -76.93359375 103.88671875 C-69.75051416 103.56021513 -62.95536063 102.81801884 -55.96484375 101.08984375 C-55.29453125 100.92838867 -54.62421875 100.76693359 -53.93359375 100.60058594 C-50.25096868 99.63492814 -47.51183616 98.4985712 -44.65234375 95.96484375 C-45.77769531 95.83529297 -45.77769531 95.83529297 -46.92578125 95.703125 C-62.15182729 93.61289954 -73.60848159 85.79735192 -82.8984375 73.6171875 C-85.74442244 69.31334836 -87.81605661 64.77620074 -89.65234375 59.96484375 C-90.0184375 59.06894531 -90.38453125 58.17304687 -90.76171875 57.25 C-91.95661486 52.8425104 -92.02055204 48.69939065 -92.02734375 44.15234375 C-92.06408203 42.87520508 -92.06408203 42.87520508 -92.1015625 41.57226562 C-92.12725316 35.95029281 -91.09245294 32.00645442 -88.58447266 26.98828125 C-87.38244917 24.37896469 -87.09852827 21.78935109 -86.65234375 18.96484375 C-79.77986496 4.9539867 -67.97628814 -4.99379646 -53.390625 -10.19921875 C-34.79403432 -15.0942623 -15.30670383 -11.74490824 0 0 Z " fill="#33465E" transform="translate(129.65234375,47.03515625)"/>
<path d="M0 0 C0.3403125 0.804375 0.3403125 0.804375 0.6875 1.625 C4.026338 7.66670685 7.37781268 10.57806664 13.6875 13.3125 C26.05793623 19.05916536 34.59763427 28.48925831 40 41 C42.19173738 49.81293002 42.36096144 59.88696608 38 68 C37.37931641 69.21623047 37.37931641 69.21623047 36.74609375 70.45703125 C30.6578687 81.52200703 22.85154807 85.91043056 11.51171875 90.51953125 C7.97476536 91.88111111 7.97476536 91.88111111 5 94 C5 93.01 5 92.02 5 91 C4.01 91 3.02 91 2 91 C-0.14869809 86.70260382 0.8373771 81.25451955 1.4375 76.625 C3.57608371 73.03217937 5.7808463 72.78231345 9.6875 71.69921875 C16.82989466 69.53960955 21.08573644 64.16843624 24.8125 58 C27.50545819 51.03545295 27.16583752 41.96998123 24.5 35.0625 C21.06665159 28.57057009 15.20550179 23.64661429 8.1953125 21.43359375 C-1.08972764 19.59971572 -9.17579606 21.26931853 -17.3125 25.875 C-22.46358944 29.94795444 -25.53599339 34.56049267 -27 41 C-27.89441199 49.98037989 -26.46238819 56.34882231 -22.3125 64.1875 C-17.14188404 70.47608698 -10.88452477 72.77716861 -3 74 C-4.21967429 68.44162925 -4.21967429 68.44162925 -8.1328125 64.71875 C-9.71557985 64.08767877 -11.31940307 63.50639901 -12.94140625 62.984375 C-15.49729498 61.7622043 -16.008061 60.59512689 -17 58 C-13.10386066 57.69442044 -10.6914851 57.60711074 -7.25 59.5625 C-4.46837511 62.57592697 -3.4017675 65.16358367 -2 69 C-3.45909403 61.9477122 -5.68720845 57.4741491 -10.6875 52.125 C-13.61327147 48.17125477 -13.74974833 45.83819886 -14 41 C-13.34 41.99 -12.68 42.98 -12 44 C-9.6885752 46.85429155 -7.34182583 49.67776824 -4.99609375 52.50390625 C-3 55 -3 55 -2 57 C-1.63648438 56.18015625 -1.27296875 55.3603125 -0.8984375 54.515625 C3.96858639 44.08272251 3.96858639 44.08272251 10 41 C11.79394446 39.37648891 11.79394446 39.37648891 13 38 C12.87879584 44.06020805 12.87879584 44.06020805 10.48046875 46.625 C9.23825995 47.62922774 7.98408361 48.61882082 6.71875 49.59375 C3.40723985 52.3031674 1.59889604 55.80772774 1 60 C0.62723119 65.14667884 0.62723119 65.14667884 2 70 C1.13060888 72.42717384 0.2034125 74.76015922 -0.8125 77.125 C-2.9982313 82.37138141 -4.85967562 87.41241052 -6 93 C-7.66815108 92.33705641 -9.33442361 91.66938591 -11 91 C-11.98355469 90.60683594 -12.96710938 90.21367188 -13.98046875 89.80859375 C-25.8730795 84.72417673 -35.13251366 77.49544137 -40.08984375 65.32421875 C-42.74671388 55.6203712 -42.41577686 44.64440737 -38.1875 35.5 C-32.08112361 24.92222021 -23.66449532 17.17151531 -12.375 12.5 C-5.88651796 9.6162302 -3.17834572 6.12125842 0 0 Z " fill="#F7F7F3" transform="translate(94,36)"/>
<path d="M0 0 C10.170505 8.67169374 17.01564134 19.27801259 20.16015625 32.33984375 C20.22203125 33.53609375 20.28390625 34.73234375 20.34765625 35.96484375 C20.44046875 37.48851563 20.44046875 37.48851563 20.53515625 39.04296875 C21.04912395 53.62680233 16.41288769 67.0112889 6.97265625 78.21484375 C5.78272758 79.48237647 4.57437547 80.73288214 3.34765625 81.96484375 C2.765 82.57070312 2.18234375 83.1765625 1.58203125 83.80078125 C-5.32575862 90.44735218 -14.13658567 95.24719719 -23.83984375 95.52734375 C-26.5078125 95.46875 -26.5078125 95.46875 -28.65234375 94.96484375 C-31.13620434 91.23905286 -31.03276495 89.37772973 -30.65234375 84.96484375 C-29.07229278 81.13945719 -27.88900456 80.08435878 -24.140625 78.19140625 C-22.75269197 77.64725261 -21.36051956 77.11381923 -19.96484375 76.58984375 C-7.88318524 71.64415925 -1.40555784 64.83607706 3.72265625 52.71484375 C6.0925235 38.49564022 3.56184772 27.62744579 -4.65234375 15.96484375 C-10.32996583 8.92347911 -17.83915605 4.6903949 -25.96484375 0.96484375 C-30.00381137 -0.98923168 -32.08095226 -3.3728714 -34.65234375 -7.03515625 C-35.14734375 -8.52015625 -35.14734375 -8.52015625 -35.65234375 -10.03515625 C-35.93207031 -9.51566406 -36.21179688 -8.99617188 -36.5 -8.4609375 C-40.23063733 -1.97130794 -44.24104441 1.98653468 -51.46484375 4.21484375 C-61.33979724 7.6087598 -69.31508928 17.89299405 -73.80078125 27.0234375 C-76.1295807 32.38044483 -76.11080771 37.26652252 -75.90234375 43.02734375 C-75.87527344 44.46883789 -75.87527344 44.46883789 -75.84765625 45.93945312 C-75.80103171 48.28233602 -75.73562544 50.62302665 -75.65234375 52.96484375 C-79.18767048 51.78640151 -79.74381839 50.56329206 -81.40576172 47.35424805 C-81.71400879 46.71011963 -82.02225586 46.06599121 -82.33984375 45.40234375 C-82.81381592 44.4119812 -82.81381592 44.4119812 -83.29736328 43.40161133 C-86.11879895 36.93056117 -86.23087673 31.08354082 -85.80078125 24.1328125 C-85.39851528 21.0653452 -85.39851528 21.0653452 -86.65234375 18.96484375 C-79.79854812 4.94571632 -67.96138504 -4.99911517 -53.390625 -10.19921875 C-34.79403432 -15.0942623 -15.30670383 -11.74490824 0 0 Z " fill="#9BC7D9" transform="translate(129.65234375,47.03515625)"/>
<path d="M0 0 C-0.08121094 1.05316406 -0.16242187 2.10632813 -0.24609375 3.19140625 C-0.82958831 14.28556549 1.01845655 22.56017662 7 32 C7.99 32.66 8.98 33.32 10 34 C11.140625 36.13671875 11.140625 36.13671875 12.25 38.6875 C16.00485148 46.47825472 21.28583742 51.18323663 29 55 C30.17304687 55.59296875 31.34609375 56.1859375 32.5546875 56.796875 C36.02830204 58.54796703 39.51199494 60.27776727 43 62 C43.33 59.36 43.66 56.72 44 54 C44.33 54 44.66 54 45 54 C44.8453125 55.9490625 44.8453125 55.9490625 44.6875 57.9375 C44.65686655 62.80821899 46.15988102 65.7546918 48.80859375 69.76171875 C52.17844834 76.0926259 50.58933809 82.60223812 49.5625 89.375 C49.41490234 90.39722656 49.26730469 91.41945313 49.11523438 92.47265625 C48.75157616 94.98307102 48.37961124 97.4919566 48 100 C47.01 99.505 47.01 99.505 46 99 C45.65625 96.85546875 45.65625 96.85546875 45.5 94.1875 C45.28813073 90.60161264 44.80651868 88.12498594 43 85 C42.01 85.33 41.02 85.66 40 86 C39.71125 86.639375 39.4225 87.27875 39.125 87.9375 C37.60701391 90.72047449 35.90781761 90.95616804 33 92 C32.67 92.66 32.34 93.32 32 94 C32 93.01 32 92.02 32 91 C32.804375 90.525625 33.60875 90.05125 34.4375 89.5625 C37.162765 88.28633585 37.162765 88.28633585 37.66015625 85.90234375 C37.77230469 85.27457031 37.88445312 84.64679688 38 84 C36.39214223 84.59427388 34.78882291 85.20083588 33.1875 85.8125 C32.29417969 86.14894531 31.40085938 86.48539062 30.48046875 86.83203125 C28.08075928 87.96197319 26.71576647 89.01062293 25 91 C23.515 90.505 23.515 90.505 22 90 C23.32 88.68 24.64 87.36 26 86 C24.81921875 86.02320313 23.6384375 86.04640625 22.421875 86.0703125 C20.86458967 86.08907497 19.30729748 86.10727466 17.75 86.125 C16.97269531 86.14175781 16.19539063 86.15851563 15.39453125 86.17578125 C8.27568856 86.23662606 8.27568856 86.23662606 5 84 C5.8971875 83.97421875 6.794375 83.9484375 7.71875 83.921875 C14.90182959 83.59537138 21.69698312 82.85317509 28.6875 81.125 C29.3578125 80.96354492 30.028125 80.80208984 30.71875 80.63574219 C34.40137507 79.67008439 37.14050759 78.53372745 40 76 C38.87464844 75.87044922 38.87464844 75.87044922 37.7265625 75.73828125 C22.50051646 73.64805579 11.04386216 65.83250817 1.75390625 53.65234375 C-1.09207869 49.34850461 -3.16371286 44.81135699 -5 40 C-5.54914062 38.65615234 -5.54914062 38.65615234 -6.109375 37.28515625 C-7.30427111 32.87766665 -7.36820829 28.7345469 -7.375 24.1875 C-7.41173828 22.91036133 -7.41173828 22.91036133 -7.44921875 21.60742188 C-7.47490731 15.98590836 -6.49003282 11.98078711 -3.86181641 7.0012207 C-2.73631471 4.75084762 -2.73631471 4.75084762 -3 1 C-1 0 -1 0 0 0 Z " fill="#7D2F4F" transform="translate(45,67)"/>
<path d="M0 0 C2.95312507 1.03894592 3.88713835 1.79952607 5.44921875 4.57421875 C9.70365739 15.2707096 9.70365739 15.2707096 10 21 C10.061875 22.01578125 10.12375 23.0315625 10.1875 24.078125 C10.7014677 38.66195858 6.06523144 52.04644515 -3.375 63.25 C-4.56492867 64.51753272 -5.77328078 65.76803839 -7 67 C-7.58265625 67.60585937 -8.1653125 68.21171875 -8.765625 68.8359375 C-15.67341487 75.48250843 -24.48424192 80.28235344 -34.1875 80.5625 C-36.85546875 80.50390625 -36.85546875 80.50390625 -39 80 C-41.48386059 76.27420911 -41.3804212 74.41288598 -41 70 C-39.41994903 66.17461344 -38.23666081 65.11951503 -34.48828125 63.2265625 C-33.10034822 62.68240886 -31.70817581 62.14897548 -30.3125 61.625 C-17.993439 56.58213366 -11.43441759 49.37257589 -6.1875 37.0625 C-4.49015858 32.20011605 -4.2723167 27.10828566 -4 22 C-3.34 22 -2.68 22 -2 22 C-2.02320313 20.83082031 -2.04640625 19.66164063 -2.0703125 18.45703125 C-2.08907821 16.90886058 -2.10727755 15.36068297 -2.125 13.8125 C-2.14175781 13.04357422 -2.15851563 12.27464844 -2.17578125 11.48242188 C-2.21266851 7.1850566 -1.9958504 3.92098169 0 0 Z " fill="#60B1B3" transform="translate(140,62)"/>
<path d="M0 0 C0.144375 1.216875 0.28875 2.43375 0.4375 3.6875 C0.82780953 6.82670377 1.32351856 9.9075134 2 13 C1.01 13.66 0.02 14.32 -1 15 C-0.67 15.33 -0.34 15.66 0 16 C0.12717273 18.94863292 0.18521566 21.86342268 0.1875 24.8125 C0.19974609 25.63298828 0.21199219 26.45347656 0.22460938 27.29882812 C0.22750977 28.49088867 0.22750977 28.49088867 0.23046875 29.70703125 C0.23457764 30.4338208 0.23868652 31.16061035 0.24291992 31.90942383 C-0.034558 34.29740718 -0.81807836 35.92336632 -2 38 C-2.37511719 37.41992188 -2.75023438 36.83984375 -3.13671875 36.2421875 C-6.19264631 31.57747188 -9.33537193 27.20354396 -13 23 C-12.01234017 27.27985927 -10.30191675 30.04030915 -7.5625 33.375 C-4.24890138 37.47030351 -2.40177806 40.91855454 -1 46 C-1.33 46.99 -1.66 47.98 -2 49 C-2.32613281 48.37351563 -2.65226562 47.74703125 -2.98828125 47.1015625 C-3.42527344 46.28429687 -3.86226562 45.46703125 -4.3125 44.625 C-4.74175781 43.81289062 -5.17101562 43.00078125 -5.61328125 42.1640625 C-6.96778724 39.73165957 -6.96778724 39.73165957 -10 38 C-12.32387947 37.60612212 -14.65793749 37.26513915 -17 37 C-14.38339061 39.92444578 -12.65868215 41.78922171 -8.875 43 C-6 44 -6 44 -4.125 46.375 C-3 49 -3 49 -3 53 C-11.25905325 52.73780783 -16.87696702 50.38385745 -22.60546875 44.29296875 C-28.16852409 37.06589099 -28.88141627 28.85936355 -28 20 C-26.26075494 12.25045237 -22.51822815 7.42747572 -16 3 C-10.55091083 -0.07130481 -6.08558579 -0.37258689 0 0 Z " fill="#EF942D" transform="translate(94,57)"/>
<path d="M0 0 C12.37918063 -0.98595244 23.86338964 3.42757821 33.56640625 11.00390625 C39.11118749 15.75539539 43.33042559 20.69012205 47 27 C46.01 27 45.02 27 44 27 C43.15808218 29.9248633 42.88180687 32.50741656 42.90234375 35.546875 C42.90556641 36.39121094 42.90878906 37.23554687 42.91210938 38.10546875 C42.92048828 38.97816406 42.92886719 39.85085937 42.9375 40.75 C42.94201172 41.63816406 42.94652344 42.52632812 42.95117188 43.44140625 C42.962926 45.62767329 42.97935751 47.81380179 43 50 C42.67 49.34 42.34 48.68 42 48 C41.34 48 40.68 48 40 48 C40 51.63 40 55.26 40 59 C39.67 59 39.34 59 39 59 C38.93683594 57.85144531 38.87367188 56.70289063 38.80859375 55.51953125 C37.83082244 41.92762914 34.57810538 31.27147013 24.16796875 21.70703125 C19.06513625 17.6891253 13.49283488 14.67509583 7.625 11.9375 C4.1244007 10.22263152 2.00952176 8.43293301 0 5 C-0.09375 2.33984375 -0.09375 2.33984375 0 0 Z " fill="#8DC0C1" transform="translate(96,36)"/>
<path d="M0 0 C1 3 1 3 0.1015625 5.1640625 C-6.03225873 15.38709788 -13.43565873 22.47893723 -24 28 C-25.7015625 28.928125 -25.7015625 28.928125 -27.4375 29.875 C-32.21879749 31.38488342 -37.02801647 31.84103204 -42 31 C-44.48386059 27.27420911 -44.3804212 25.41288598 -44 21 C-41.40148464 15.3265748 -37.78898844 14.2217422 -32.21484375 12.06640625 C-27.85294537 10.61950679 -23.5219376 9.75365627 -19 9 C-16.84314376 8.63852285 -16.84314376 8.63852285 -15 8 C-13.71563266 6.0162233 -13.71563266 6.0162233 -13 4 C-12.67 4.66 -12.34 5.32 -12 6 C-10.3725363 5.38144369 -8.74809644 4.75492695 -7.125 4.125 C-6.22007812 3.77695313 -5.31515625 3.42890625 -4.3828125 3.0703125 C-1.87782993 2.11469105 -1.87782993 2.11469105 0 0 Z " fill="#266C76" transform="translate(143,111)"/>
<path d="M0 0 C-0.08121094 1.05316406 -0.16242187 2.10632813 -0.24609375 3.19140625 C-0.83028299 14.32475495 1.09589513 22.48931524 7 32 C7.66 32.33 8.32 32.66 9 33 C9.5625 35.109375 9.5625 35.109375 10 37.75 C10.61732181 41.43188367 11.60032605 44.54605174 13 48 C13.5084603 49.93001945 13.98647618 51.86825607 14.4375 53.8125 C15.62807554 58.7266613 17.10792134 63.31485284 19 68 C8.96729979 64.46215308 2.84822215 56.0949279 -2 47 C-2.50917969 46.04609375 -3.01835938 45.0921875 -3.54296875 44.109375 C-6.64242991 37.33744306 -7.47634021 31.10343248 -7.5625 23.75 C-7.58461548 22.50875366 -7.58461548 22.50875366 -7.60717773 21.24243164 C-7.51657093 15.8076512 -6.37251381 11.83517495 -3.85522461 7.01660156 C-2.73971167 4.75132138 -2.73971167 4.75132138 -3 1 C-1 0 -1 0 0 0 Z " fill="#486192" transform="translate(45,67)"/>
<path d="M0 0 C-0.144375 0.78375 -0.28875 1.5675 -0.4375 2.375 C-1.14003185 6.90242749 -1.57637495 11.43927072 -2 16 C-1.34 16 -0.68 16 0 16 C-0.94752576 18.51492818 -1.90795685 20.84603691 -3.2890625 23.15625 C-8.59776065 32.46975553 -7.46918138 42.63325705 -7 53 C-10.53532673 51.82155776 -11.09147464 50.59844831 -12.75341797 47.3894043 C-13.06166504 46.74527588 -13.36991211 46.10114746 -13.6875 45.4375 C-14.16147217 44.44713745 -14.16147217 44.44713745 -14.64501953 43.43676758 C-17.4664552 36.96571742 -17.57853298 31.11869707 -17.1484375 24.16796875 C-16.74617153 21.10050145 -16.74617153 21.10050145 -18 19 C-14.80272269 12.56209248 -8.03635661 0 0 0 Z " fill="#6AA7C9" transform="translate(61,47)"/>
<path d="M0 0 C13.25463744 -1.21416526 13.25463744 -1.21416526 17.15625 1.5 C18.69127401 3.59024546 19.84578049 5.6796618 21 8 C21.93188525 9.35803663 22.86923797 10.71234062 23.8125 12.0625 C26.08269475 15.73701393 26.73199679 18.71194856 27 23 C23.98859877 21.49429938 23.4372818 18.89855171 22.09765625 15.91015625 C21.00610802 13.68264809 21.00610802 13.68264809 18 12 C15.67612053 11.60612212 13.34206251 11.26513915 11 11 C13.61660939 13.92444578 15.34131785 15.78922171 19.125 17 C22 18 22 18 23.875 20.375 C25 23 25 23 25 27 C16.74094675 26.73780783 11.12303298 24.38385745 5.39453125 18.29296875 C1.06435437 12.66754835 -0.10842116 7.02766223 0 0 Z " fill="#89A653" transform="translate(66,83)"/>
<path d="M0 0 C-0.03480469 1.53720703 -0.03480469 1.53720703 -0.0703125 3.10546875 C-0.08908036 4.46613851 -0.10727947 5.8268162 -0.125 7.1875 C-0.14175781 7.86103516 -0.15851563 8.53457031 -0.17578125 9.22851562 C-0.21600565 13.35151709 0.38289499 16.2480607 2 20 C2.08984375 22.28125 2.08984375 22.28125 1.9375 24.5 C1.86368767 28.53954746 2.23305158 30.86412512 5 34 C16.67373065 41.7824871 31.64857824 40.34750764 45 40 C44.505 40.99 44.505 40.99 44 42 C41.68334961 42.41064453 41.68334961 42.41064453 38.65234375 42.6328125 C37.57275391 42.71660156 36.49316406 42.80039063 35.38085938 42.88671875 C33.67639648 43.00466797 33.67639648 43.00466797 31.9375 43.125 C30.79732422 43.21136719 29.65714844 43.29773438 28.48242188 43.38671875 C25.65546667 43.59962751 22.82814574 43.80364922 20 44 C20.99 44.66 21.98 45.32 23 46 C23 46.66 23 47.32 23 48 C20.36278505 47.04767238 18.21996549 46.17184804 16 44.4375 C13.67537209 42.76667369 11.80890941 42.39012631 9 42 C9.33 43.65 9.66 45.3 10 47 C11.485 47.495 11.485 47.495 13 48 C12.01 48.495 12.01 48.495 11 49 C9.0625 47.875 9.0625 47.875 7 46 C6.60235737 44.01178687 6.26224651 42.01055661 6 40 C5.34 39.67 4.68 39.34 4 39 C3.95101562 39.61488281 3.90203125 40.22976562 3.8515625 40.86328125 C3.77679688 41.67152344 3.70203125 42.47976562 3.625 43.3125 C3.55539063 44.11300781 3.48578125 44.91351563 3.4140625 45.73828125 C3 48 3 48 1 51 C1.05800781 50.21238281 1.11601563 49.42476562 1.17578125 48.61328125 C1.57420645 38.99415853 -0.26231008 30.59346603 -5.67578125 22.4921875 C-8.35247629 17.45463165 -6.88353866 11.00811716 -5.32421875 5.69921875 C-3.02329193 0 -3.02329193 0 0 0 Z " fill="#48455B" transform="translate(96,110)"/>
<path d="M0 0 C12.2173913 -0.39130435 12.2173913 -0.39130435 17 2 C17.33 2.99 17.66 3.98 18 5 C18.66 5.33 19.32 5.66 20 6 C20.08074203 8.62561109 20.1403623 11.24875676 20.1875 13.875 C20.21263672 14.62136719 20.23777344 15.36773437 20.26367188 16.13671875 C20.29296875 18.3046875 20.29296875 18.3046875 20 22 C19.01 22.66 18.02 23.32 17 24 C17 22.35 17 20.7 17 19 C16.236875 19.763125 15.47375 20.52625 14.6875 21.3125 C13.28121142 22.71878858 11.87218961 24.12269798 10.4375 25.5 C8.47432893 27.54852634 6.7632126 29.77885693 5 32 C4.93941406 30.94039062 4.87882812 29.88078125 4.81640625 28.7890625 C4.73199873 27.40102779 4.64735083 26.01300768 4.5625 24.625 C4.52318359 23.92632812 4.48386719 23.22765625 4.44335938 22.5078125 C4.25719866 18.62639508 4.25719866 18.62639508 3 15 C3.99 14.67 4.98 14.34 6 14 C5.835 13.34 5.67 12.68 5.5 12 C4.87816701 8.26900206 4.93591074 4.78126622 5 1 C3.35 1 1.7 1 0 1 C0 0.67 0 0.34 0 0 Z " fill="#57A29E" transform="translate(89,56)"/>
<path d="M0 0 C0.99 0 1.98 0 3 0 C6.30083959 12.79075342 5.9824433 24.68936454 1 37 C0.34 37.99 -0.32 38.98 -1 40 C-1.66 40 -2.32 40 -3 40 C-4.72707162 41.02344985 -6.45321561 42.04961695 -8.1484375 43.125 C-10 44 -10 44 -14 44 C-14 42.35 -14 40.7 -14 39 C-12.63875 38.938125 -12.63875 38.938125 -11.25 38.875 C-7.82985818 38.27785642 -7.82985818 38.27785642 -5.80078125 35.4765625 C-3.56500627 31.16020733 -3.63317431 28.24414569 -3.9375 23.5 C-4.28243036 17.64133205 -3.93834344 14.26824202 -1 9 C-0.44491322 6.4980375 -0.44491322 6.4980375 -0.3125 4.125 C-0.24675781 3.34382813 -0.18101562 2.56265625 -0.11328125 1.7578125 C-0.07589844 1.17773438 -0.03851563 0.59765625 0 0 Z " fill="#359A9D" transform="translate(145,73)"/>
<path d="M0 0 C3.82974007 0.11605273 5.85454641 1.47296573 8.5625 4 C12.16500173 7.83898981 14.63095572 11.89383487 16 17 C15.75 20.5625 15.75 20.5625 15 23 C13.39773045 23.22245393 11.79303233 23.42746669 10.1875 23.625 C8.84751953 23.79902344 8.84751953 23.79902344 7.48046875 23.9765625 C5 24 5 24 2 22 C2.15339844 21.49984375 2.30679688 20.9996875 2.46484375 20.484375 C3.19457396 17.09672234 3.36356477 13.70038481 3.5625 10.25 C3.60568359 9.55261719 3.64886719 8.85523437 3.69335938 8.13671875 C3.79889596 6.42468078 3.8998991 4.71236439 4 3 C2.68 2.34 1.36 1.68 0 1 C0 0.67 0 0.34 0 0 Z " fill="#286D76" transform="translate(105,59)"/>
<path d="M0 0 C1.27875 -0.061875 2.5575 -0.12375 3.875 -0.1875 C4.95394531 -0.23970703 4.95394531 -0.23970703 6.0546875 -0.29296875 C6.69664063 -0.19628906 7.33859375 -0.09960938 8 0 C10.02752537 3.04128805 10.25479962 3.66863562 10.265625 7.08984375 C10.26820312 7.87423828 10.27078125 8.65863281 10.2734375 9.46679688 C10.26570313 10.28212891 10.25796875 11.09746094 10.25 11.9375 C10.25773437 12.74896484 10.26546875 13.56042969 10.2734375 14.39648438 C10.27085938 15.18216797 10.26828125 15.96785156 10.265625 16.77734375 C10.26336914 17.49140381 10.26111328 18.20546387 10.25878906 18.94116211 C9.9619308 21.30286559 9.16635976 22.94091751 8 25 C7.62488281 24.41992188 7.24976562 23.83984375 6.86328125 23.2421875 C4.44026706 19.54358145 2.11180219 16.02454585 -0.9375 12.8125 C-3 10 -3 10 -2.9375 6.875 C-2.13507167 4.41421978 -1.29124778 2.23816282 0 0 Z " fill="#DE532C" transform="translate(84,70)"/>
<path d="M0 0 C-3.49078697 5.60641544 -5.66344892 7.67659794 -12 10 C-13.59914663 10.78091661 -15.18234797 11.59514152 -16.75 12.4375 C-17.48734375 12.82808594 -18.2246875 13.21867188 -18.984375 13.62109375 C-21.21981151 15.15037493 -22.49920635 16.76305756 -24 19 C-24.99 18.67 -25.98 18.34 -27 18 C-27.29798739 12.93421445 -27.07890126 10.07463103 -24 6 C-18.41882981 2.71246139 -6.36510312 -3.18255156 0 0 Z " fill="#245661" transform="translate(126,121)"/>
<path d="M0 0 C0.99 0 1.98 0 3 0 C3.5326087 10.15901771 3.5326087 10.15901771 0 15 C-0.474375 16.19625 -0.94875 17.3925 -1.4375 18.625 C-2.97492981 21.94584839 -3.84506611 23.26987497 -7 25 C-7.66 25 -8.32 25 -9 25 C-9.33 25.66 -9.66 26.32 -10 27 C-10 26.01 -10 25.02 -10 24 C-9.195625 23.525625 -8.39125 23.05125 -7.5625 22.5625 C-4.837235 21.28633585 -4.837235 21.28633585 -4.33984375 18.90234375 C-4.22769531 18.27457031 -4.11554688 17.64679688 -4 17 C-5.60785777 17.59427388 -7.21117709 18.20083588 -8.8125 18.8125 C-9.70582031 19.14894531 -10.59914063 19.48539063 -11.51953125 19.83203125 C-13.91924072 20.96197319 -15.28423353 22.01062293 -17 24 C-17.99 23.67 -18.98 23.34 -20 23 C-18.68 21.68 -17.36 20.36 -16 19 C-17.18078125 19.02320313 -18.3615625 19.04640625 -19.578125 19.0703125 C-21.13541033 19.08907497 -22.69270252 19.10727466 -24.25 19.125 C-25.02730469 19.14175781 -25.80460937 19.15851563 -26.60546875 19.17578125 C-33.72431144 19.23662606 -33.72431144 19.23662606 -37 17 C-36.1028125 16.97421875 -35.205625 16.9484375 -34.28125 16.921875 C-27.09817041 16.59537138 -20.30301688 15.85317509 -13.3125 14.125 C-12.6421875 13.96354492 -11.971875 13.80208984 -11.28125 13.63574219 C-7.62539837 12.67710492 -4.66867052 11.73297583 -2 9 C-1.09956172 6.74842467 -1.09956172 6.74842467 -0.75 4.3125 C-0.60046875 3.50425781 -0.4509375 2.69601563 -0.296875 1.86328125 C-0.19890625 1.24839844 -0.1009375 0.63351563 0 0 Z " fill="#464455" transform="translate(87,134)"/>
<path d="M0 0 C0.66 0.33 1.32 0.66 2 1 C2.86054992 18.00064185 2.86054992 18.00064185 -0.25 22.5 C-2.86107964 24.87370876 -3.68661853 25.52287307 -7 26 C-7.66 25.67 -8.32 25.34 -9 25 C-9.0825 25.5775 -9.165 26.155 -9.25 26.75 C-10.52076739 30.56230216 -12.92554378 32.44899681 -16.4375 34.25 C-19.09442591 35.02763685 -21.24747298 35.15728726 -24 35 C-21.74627044 32.65958853 -19.4855695 30.59055531 -16.9375 28.5625 C-14.14529187 26.12674397 -12.824929 24.15215009 -11 21 C-10.319375 20.525625 -9.63875 20.05125 -8.9375 19.5625 C-6.28972074 17.42719414 -6.02498677 15.20308366 -5 12 C-4.319375 11.195625 -3.63875 10.39125 -2.9375 9.5625 C-0.53732185 6.38807084 -0.30702525 3.91457198 0 0 Z " fill="#48A4A4" transform="translate(140,87)"/>
<path d="M0 0 C7.69896687 2.09971824 12.29158883 8.95391419 16.15234375 15.49609375 C16.43207031 15.99238281 16.71179688 16.48867188 17 17 C16.01 17 15.02 17 14 17 C13.34 20.3 12.68 23.6 12 27 C7.125 22.375 7.125 22.375 6 19 C5.34 19 4.68 19 4 19 C3.81824219 17.98679687 3.81824219 17.98679687 3.6328125 16.953125 C3.46523437 16.06109375 3.29765625 15.1690625 3.125 14.25 C2.96257812 13.36828125 2.80015625 12.4865625 2.6328125 11.578125 C2.0300245 9.12232205 1.13852789 7.23910486 0 5 C-0.125 2.25 -0.125 2.25 0 0 Z " fill="#73B9BC" transform="translate(126,46)"/>
<path d="M0 0 C3.53353727 3.53353727 4.33318595 8.05209535 5.4375 12.8125 C6.62807554 17.7266613 8.10792134 22.31485284 10 27 C0.04921637 23.49103946 -6.23838165 15.09453795 -11 6 C-11 5.34 -11 4.68 -11 4 C-6.96479403 5.58962659 -2.98188718 7.28232318 1 9 C1 5.95799954 0.44513658 3.00467194 0 0 Z " fill="#463B63" transform="translate(54,108)"/>
<path d="M0 0 C0.6875 1.6875 0.6875 1.6875 1 4 C-0.87368628 8.16374729 -3.49858583 10.19886866 -7 13 C-10.98369919 18.69099885 -11.21850903 23.22622018 -11 30 C-10.67 30.66 -10.34 31.32 -10 32 C-10.9375 34.625 -10.9375 34.625 -12 37 C-14.04326031 33.93510953 -14.19654108 33.26075215 -14.3125 29.8125 C-14.92355335 23.20883576 -18.34766274 18.74786955 -22.75 14 C-25.64676938 10.13764083 -25.7540116 7.75577567 -26 3 C-25.01 4.485 -25.01 4.485 -24 6 C-21.6885752 8.85429155 -19.34182583 11.67776824 -16.99609375 14.50390625 C-15 17 -15 17 -14 19 C-13.63648437 18.18015625 -13.27296875 17.3603125 -12.8984375 16.515625 C-8.07463867 6.17537931 -8.07463867 6.17537931 -2 3 C-1.34 2.01 -0.68 1.02 0 0 Z " fill="#EBEBE1" transform="translate(106,74)"/>
<path d="M0 0 C0.33 0 0.66 0 1 0 C0.896875 1.299375 0.79375 2.59875 0.6875 3.9375 C0.65686655 8.80821899 2.15988102 11.7546918 4.80859375 15.76171875 C8.17844834 22.0926259 6.58933809 28.60223812 5.5625 35.375 C5.41490234 36.39722656 5.26730469 37.41945312 5.11523438 38.47265625 C4.75157616 40.98307102 4.37961124 43.4919566 4 46 C3.34 45.67 2.68 45.34 2 45 C1.65625 42.85546875 1.65625 42.85546875 1.5 40.1875 C1.28813073 36.60161264 0.80651868 34.12498594 -1 31 C-1.66 31.33 -2.32 31.66 -3 32 C-2.58168198 29.49009187 -2.20851112 27.37961757 -0.9765625 25.13671875 C0.78020285 21.29291615 0.36623936 17.1439305 0 13 C-0.37125 12.13375 -0.7425 11.2675 -1.125 10.375 C-2.51434586 6.60391838 -1.15416671 3.783102 0 0 Z " fill="#D4D4D6" transform="translate(89,121)"/>
<path d="M0 0 C1.11169695 1.66754542 2.21153546 3.34382698 3.26171875 5.05078125 C6.61788945 10.37467943 10.03716922 14.12899199 15 18 C13 20 13 20 10 21 C12.08606246 25.06233217 14.00367916 26.83982657 18 29 C18 29.33 18 29.66 18 30 C14.7 30 11.4 30 8 30 C3.98214286 20.35714286 3.98214286 20.35714286 2.875 15.6875 C2.14622852 12.12453747 2.14622852 12.12453747 0.875 9.4375 C-0.27604821 6.23100855 -0.13245383 3.37757265 0 0 Z " fill="#B74378" transform="translate(54,101)"/>
<path d="M0 0 C-0.03480469 1.53720703 -0.03480469 1.53720703 -0.0703125 3.10546875 C-0.08908036 4.46613851 -0.10727947 5.8268162 -0.125 7.1875 C-0.14175781 7.86103516 -0.15851563 8.53457031 -0.17578125 9.22851562 C-0.21625629 13.37720718 0.47257938 16.20608427 2 20 C1.9765625 23.11328125 1.9765625 23.11328125 1.625 26.3125 C1.45871094 27.91544922 1.45871094 27.91544922 1.2890625 29.55078125 C1.14597656 30.76314453 1.14597656 30.76314453 1 32 C0.34 32 -0.32 32 -1 32 C-6.06436902 23.72085761 -8.21353843 17.60122296 -6 8 C-5.2098743 5.38719798 -4.3377929 3.40802723 -3 1 C-1 0 -1 0 0 0 Z " fill="#423B4A" transform="translate(96,110)"/>
<path d="M0 0 C5 0 5 0 6.625 1.46875 C7.07875 2.1390625 7.5325 2.809375 8 3.5 C8.49886719 4.23089844 8.99773437 4.96179688 9.51171875 5.71484375 C10.00285156 6.46894531 10.49398437 7.22304687 11 8 C11.48082031 8.68191406 11.96164063 9.36382812 12.45703125 10.06640625 C15.41744191 14.42597353 16.67083807 17.73340907 17 23 C13.98859877 21.49429938 13.4372818 18.89855171 12.09765625 15.91015625 C10.209782 12.62485195 7.84033714 11.9512893 4.3125 10.875 C3.219375 10.58625 2.12625 10.2975 1 10 C0.67 6.7 0.34 3.4 0 0 Z " fill="#648749" transform="translate(76,83)"/>
<path d="M0 0 C0.91007812 0.00902344 1.82015625 0.01804687 2.7578125 0.02734375 C3.45648438 0.03894531 4.15515625 0.05054687 4.875 0.0625 C3.9236632 3.26245105 3.45041828 4.7293631 0.5 6.4375 C-3.15545883 8.70040308 -4.18806215 11.26036273 -6.125 15.0625 C-6.455 15.0625 -6.785 15.0625 -7.125 15.0625 C-7.125 10.4425 -7.125 5.8225 -7.125 1.0625 C-4.60024538 -0.19987731 -2.81299534 -0.03606404 0 0 Z " fill="#31857F" transform="translate(101.125,72.9375)"/>
<path d="M0 0 C2.92189592 0.09739653 5.23301173 0.18152065 8 1 C11.19643538 4.5959898 12 6.15232978 12 11 C10.56138706 10.91253716 9.12402492 10.80434652 7.6875 10.6875 C6.88699219 10.62949219 6.08648437 10.57148437 5.26171875 10.51171875 C2.61317666 9.91248038 1.61448678 9.15797738 0 7 C0.375 5 0.375 5 1 3 C0.67 2.01 0.34 1.02 0 0 Z " fill="#5B7D4F" transform="translate(79,99)"/>
<path d="M0 0 C0 3.3 0 6.6 0 10 C-4.95 10 -9.9 10 -15 10 C-13.75819498 6.27458495 -12.12600277 5.7648481 -8.77734375 3.984375 C-6.85170252 2.97772122 -6.85170252 2.97772122 -4.75 1.25 C-3 0 -3 0 0 0 Z " fill="#EA7F26" transform="translate(81,73)"/>
<path d="M0 0 C3.53149946 0.32104541 5.55774608 0.65085217 8.375 2.875 C10 5 10 5 10 8 C9.34 8 8.68 8 8 8 C7.67 10.31 7.34 12.62 7 15 C5.68 14.67 4.36 14.34 3 14 C2.22655519 11.01671289 1.59017048 8.0246237 1 5 C0.814375 4.071875 0.62875 3.14375 0.4375 2.1875 C0.293125 1.465625 0.14875 0.74375 0 0 Z " fill="#6B2C46" transform="translate(79,126)"/>
<path d="M0 0 C1 2 1 2 0.36328125 4.0234375 C-2.05228406 9.42927512 -3.98120115 13.45189802 -9.4375 16.25 C-12.09442591 17.02763685 -14.24747298 17.15728726 -17 17 C-14.74627044 14.65958853 -12.4855695 12.59055531 -9.9375 10.5625 C-7.14529187 8.12674397 -5.824929 6.15215009 -4 3 C-1.8125 1.1875 -1.8125 1.1875 0 0 Z " fill="#59ACAD" transform="translate(133,105)"/>
<path d="M0 0 C0 0.66 0 1.32 0 2 C1.98 2.66 3.96 3.32 6 4 C6 5.98 6 7.96 6 10 C6.66 10.33 7.32 10.66 8 11 C2.56129427 10.60204592 -1.10449305 8.71049606 -5 5 C-6.4375 2.1875 -6.4375 2.1875 -7 0 C-3.98968256 -0.93423645 -3.13349732 -1.04449911 0 0 Z " fill="#94335D" transform="translate(70,121)"/>
<path d="M0 0 C1.12781025 1.69171538 2.25263933 3.38545543 3.3671875 5.0859375 C6.08374563 9.21003871 8.82149753 13.21024706 12 17 C11.67 17.66 11.34 18.32 11 19 C8.75 18.875 8.75 18.875 6 18 C1.3198373 12.1163669 -0.29305615 7.47293177 0 0 Z " fill="#9A5289" transform="translate(54,101)"/>
<path d="M0 0 C0.66 0.33 1.32 0.66 2 1 C2.02714434 3.7084017 2.04690846 6.41652721 2.0625 9.125 C2.07087891 9.88554687 2.07925781 10.64609375 2.08789062 11.4296875 C2.10646509 15.7389644 1.86117265 19.75516474 1 24 C0.34 23.67 -0.32 23.34 -1 23 C-1.22314035 20.29216168 -1.42889462 17.58481976 -1.625 14.875 C-1.68945312 14.11445313 -1.75390625 13.35390625 -1.8203125 12.5703125 C-2.14331622 7.88675858 -1.85138316 4.42353381 0 0 Z " fill="#4E4D5D" transform="translate(92,143)"/>
<path d="M0 0 C4.03645882 -0.31658501 6.32333195 -0.4210379 9.8125 1.75 C11.85465233 3.85049954 13.13090389 5.21889246 14 8 C13.625 10.25 13.625 10.25 13 12 C12.62875 11.21625 12.2575 10.4325 11.875 9.625 C9.52969758 6.34157662 7.80757237 6.08787782 4 5 C1.625 3.5 1.625 3.5 0 2 C0 1.34 0 0.68 0 0 Z " fill="#EBEDE7" transform="translate(77,94)"/>
<path d="M0 0 C0.9113287 2.52057369 1.08517871 3.73325615 0.2578125 6.32421875 C-0.11601563 7.10410156 -0.48984375 7.88398437 -0.875 8.6875 C-1.42800781 9.86892578 -1.42800781 9.86892578 -1.9921875 11.07421875 C-3 13 -3 13 -4 14 C-6.33297433 14.04092937 -8.66705225 14.04241723 -11 14 C-10.60167969 13.55269531 -10.20335938 13.10539063 -9.79296875 12.64453125 C-7.35411675 9.86151035 -5.14996141 7.25172094 -3.25 4.0625 C-2.8375 3.381875 -2.425 2.70125 -2 2 C-1.34 2 -0.68 2 0 2 C0 1.34 0 0.68 0 0 Z " fill="#358188" transform="translate(128,117)"/>
<path d="M0 0 C0.99 1.485 0.99 1.485 2 3 C4.31707572 5.78474238 6.65715867 8.54881859 9.00390625 11.30859375 C10.78744358 13.7134024 11.60766983 15.08849717 12 18 C9 18 9 18 6.9921875 16.09375 C2.55693406 10.66015538 0 7.10065383 0 0 Z " fill="#ECE3DE" transform="translate(80,77)"/>
<path d="M0 0 C0.6875 1.6875 0.6875 1.6875 1 4 C-0.83339971 8.07422157 -3.3173604 10.51421827 -7 13 C-7.99 13 -8.98 13 -10 13 C-9.07092101 8.91205246 -8.45283095 7.33018924 -5 4.8125 C-4.01 4.214375 -3.02 3.61625 -2 3 C-1.34 2.01 -0.68 1.02 0 0 Z " fill="#EAEEEE" transform="translate(106,74)"/>
<path d="M0 0 C0.33 0 0.66 0 1 0 C1.06058594 0.88042969 1.12117188 1.76085937 1.18359375 2.66796875 C1.26738281 3.82941406 1.35117187 4.99085937 1.4375 6.1875 C1.55931641 7.91033203 1.55931641 7.91033203 1.68359375 9.66796875 C1.95403812 12.51598171 2.37521747 15.21210482 3 18 C0 17 0 17 -1.16796875 15.22265625 C-1.50441406 14.50980469 -1.84085938 13.79695313 -2.1875 13.0625 C-2.53167969 12.35222656 -2.87585937 11.64195313 -3.23046875 10.91015625 C-4 9 -4 9 -4 7 C-3.34 7 -2.68 7 -2 7 C-1.34 4.69 -0.68 2.38 0 0 Z " fill="#6F9AC3" transform="translate(51,82)"/>
<path d="M0 0 C0.33 0 0.66 0 1 0 C1.05401695 2.91691525 1.09368066 5.83282724 1.125 8.75 C1.15013672 9.9875 1.15013672 9.9875 1.17578125 11.25 C1.18222656 12.04921875 1.18867187 12.8484375 1.1953125 13.671875 C1.20578613 14.4050293 1.21625977 15.13818359 1.22705078 15.89355469 C0.96777544 18.29896076 0.19225925 19.91251494 -1 22 C-2.96994636 17.24895289 -3.08312062 14.02174105 -2 9 C-1.67 8.67 -1.34 8.34 -1 8 C-0.76924918 6.65252916 -0.58846937 5.29622435 -0.4375 3.9375 C-0.2209375 1.9884375 -0.2209375 1.9884375 0 0 Z " fill="#C94D2E" transform="translate(93,73)"/>
<path d="M0 0 C0.66 0 1.32 0 2 0 C2.98430336 4.06025134 3 7.83629189 3 12 C3.33 12.66 3.66 13.32 4 14 C6.12576782 14.46651207 6.12576782 14.46651207 8.5625 14.625 C9.38878906 14.69976562 10.21507813 14.77453125 11.06640625 14.8515625 C11.70449219 14.90054688 12.34257813 14.94953125 13 15 C13 15.33 13 15.66 13 16 C8.05 16.495 8.05 16.495 3 17 C0.22324962 13.07173635 -0.34512366 10.46875108 -0.1875 5.6875 C-0.16042969 4.61886719 -0.13335937 3.55023438 -0.10546875 2.44921875 C-0.07066406 1.64097656 -0.03585938 0.83273438 0 0 Z " fill="#C3C7CC" transform="translate(97,127)"/>
<path d="M0 0 C1.875 0.25 1.875 0.25 4 1 C6.02755186 3.93995019 6 5.27704003 6 9 C1.125 8.125 1.125 8.125 0 7 C-0.04092937 4.66702567 -0.04241723 2.33294775 0 0 Z " fill="#496B49" transform="translate(85,101)"/>
<path d="M0 0 C-3.16286335 3.43396592 -5.58636455 5.49007208 -10 7 C-10.99 7.66 -11.98 8.32 -13 9 C-10.56115292 1.68345876 -7.80837632 -0.60064433 0 0 Z " fill="#DCDCDD" transform="translate(109,95)"/>
<path d="M0 0 C0.66 0 1.32 0 2 0 C0.38989473 4.07376031 -2.53822271 6.76507069 -5.625 9.75 C-6.140625 10.25660156 -6.65625 10.76320313 -7.1875 11.28515625 C-8.45383339 12.52803902 -9.7263144 13.76465276 -11 15 C-11.66 14.67 -12.32 14.34 -13 14 C-4.72093023 4.41860465 -4.72093023 4.41860465 -2 2 C-1.34 2 -0.68 2 0 2 C0 1.34 0 0.68 0 0 Z " fill="#D5D3D1" transform="translate(42,30)"/>
<path d="M0 0 C0.66 0 1.32 0 2 0 C0.16508812 4.74018901 -1.91941459 9.36413251 -4 14 C-4.99 13.67 -5.98 13.34 -7 13 C-5.75496833 7.34076516 -4.0646279 4.1662436 0 0 Z " fill="#83B6D0" transform="translate(59,63)"/>
<path d="M0 0 C-0.33 0.99 -0.66 1.98 -1 3 C-3.41696872 3.05411124 -5.83271787 3.09372278 -8.25 3.125 C-8.93191406 3.14175781 -9.61382812 3.15851563 -10.31640625 3.17578125 C-14.0608235 3.21213482 -16.82352727 3.07944349 -20 1 C-17.60429729 0.8312461 -15.20846637 0.66493164 -12.8125 0.5 C-12.13896484 0.45230469 -11.46542969 0.40460938 -10.77148438 0.35546875 C-7.17363248 0.10976179 -3.60627694 -0.05601984 0 0 Z " fill="#403D51" transform="translate(70,150)"/>
<path d="M0 0 C1.32 0.66 2.64 1.32 4 2 C4 2.99 4 3.98 4 5 C3.34 5 2.68 5 2 5 C1.67 7.31 1.34 9.62 1 12 C-0.32 11.67 -1.64 11.34 -3 11 C-2.690625 10.29875 -2.38125 9.5975 -2.0625 8.875 C-0.96697322 5.91063343 -0.43577008 3.12301892 0 0 Z " fill="#552F40" transform="translate(85,129)"/>
<path d="M0 0 C4.30028902 2.23798345 6.82431189 4.89651508 9.8125 8.6875 C10.60269531 9.68136719 11.39289063 10.67523438 12.20703125 11.69921875 C12.79871094 12.45847656 13.39039063 13.21773437 14 14 C13.67 14.66 13.34 15.32 13 16 C10.82529395 13.71584679 8.66166755 11.42149089 6.5 9.125 C5.56994141 8.14853516 5.56994141 8.14853516 4.62109375 7.15234375 C4.03457031 6.52714844 3.44804687 5.90195312 2.84375 5.2578125 C2.29912109 4.6817627 1.75449219 4.10571289 1.19335938 3.51220703 C0 2 0 2 0 0 Z " fill="#D4D1CF" transform="translate(151,34)"/>
<path d="M0 0 C1.32 0.33 2.64 0.66 4 1 C4 3.97 4 6.94 4 10 C4.99 10.33 5.98 10.66 7 11 C5.35 11 3.7 11 2 11 C0.85185003 8.70370006 0.69230191 6.92301914 0.4375 4.375 C0.35371094 3.55773437 0.26992187 2.74046875 0.18359375 1.8984375 C0.12300781 1.27195312 0.06242187 0.64546875 0 0 Z " fill="#6E954E" transform="translate(76,83)"/>
<path d="M0 0 C0.33 0 0.66 0 1 0 C1 2.31 1 4.62 1 7 C2.32 6.67 3.64 6.34 5 6 C3.68 8.64 2.36 11.28 1 14 C0.67 14 0.34 14 0 14 C0 9.38 0 4.76 0 0 Z " fill="#426E61" transform="translate(94,74)"/>
<path d="M0 0 C0.33 0.66 0.66 1.32 1 2 C-1.95664519 3.4783226 -4.74229737 3.06032783 -8 3 C-7.67 2.01 -7.34 1.02 -7 0 C-4.30234372 -1.34882814 -2.84835666 -0.80338265 0 0 Z " fill="#DAEAEB" transform="translate(106,70)"/>
<path d="M0 0 C-0.33 1.65 -0.66 3.3 -1 5 C-3.64 5.33 -6.28 5.66 -9 6 C-3.2 0 -3.2 0 0 0 Z " fill="#4B9A9B" transform="translate(125,116)"/>
<path d="M0 0 C0.99 0.33 1.98 0.66 3 1 C2.67 2.65 2.34 4.3 2 6 C0.68 5.67 -0.64 5.34 -2 5 C-1.125 1.125 -1.125 1.125 0 0 Z " fill="#F1F2EF" transform="translate(93,65)"/>
<path d="M0 0 C0.33 0 0.66 0 1 0 C1.33 3.3 1.66 6.6 2 10 C1.34 10 0.68 10 0 10 C-2.08207071 5.59090909 -2.08207071 5.59090909 -1.6875 2.75 C-1 1 -1 1 0 0 Z " fill="#393044" transform="translate(95,132)"/>
<path d="M0 0 C0.99 0.33 1.98 0.66 3 1 C2.01 3.97 1.02 6.94 0 10 C-0.66 9.34 -1.32 8.68 -2 8 C-1.69347955 5.0574037 -1.32728846 2.65457692 0 0 Z " fill="#DDDCDA" transform="translate(95,86)"/>
<path d="M0 0 C3.465 1.485 3.465 1.485 7 3 C7 2.34 7 1.68 7 1 C8.32 1.66 9.64 2.32 11 3 C8.36 3.66 5.72 4.32 3 5 C3 4.34 3 3.68 3 3 C2.01 3.33 1.02 3.66 0 4 C0 2.68 0 1.36 0 0 Z " fill="#AA4472" transform="translate(58,117)"/>
<path d="M0 0 C0.99 0 1.98 0 3 0 C3.6875 2.8125 3.6875 2.8125 4 6 C2.5625 7.875 2.5625 7.875 1 9 C0 6 0 6 1 3 C0.67 2.01 0.34 1.02 0 0 Z " fill="#668A4E" transform="translate(79,99)"/>
<path d="M0 0 C0.66 0 1.32 0 2 0 C2.33 1.65 2.66 3.3 3 5 C2.34 5 1.68 5 1 5 C1 7.97 1 10.94 1 14 C0.67 14 0.34 14 0 14 C0 9.38 0 4.76 0 0 Z " fill="#4EADB3" transform="translate(144,68)"/>
<path d="M0 0 C1.94268841 2.91403262 3.46395304 5.85808576 5 9 C3.68 9 2.36 9 1 9 C-0.4783226 6.04335481 -0.06032783 3.25770263 0 0 Z " fill="#8F5A8D" transform="translate(54,101)"/>
<path d="M0 0 C0.763125 0.0825 1.52625 0.165 2.3125 0.25 C1.125 2.25 1.125 2.25 -0.6875 4.25 C-3.375 4.5 -3.375 4.5 -5.6875 4.25 C-3.34903846 0.31153846 -3.34903846 0.31153846 0 0 Z " fill="#EFEFEF" transform="translate(106.6875,94.75)"/>
<path d="M0 0 C1.32 0.66 2.64 1.32 4 2 C3.67 2.99 3.34 3.98 3 5 C1.35 4.67 -0.3 4.34 -2 4 C-1.34 2.68 -0.68 1.36 0 0 Z " fill="#A15481" transform="translate(62,115)"/>
<path d="M0 0 C2.4375 0.375 2.4375 0.375 5 1 C6.53445094 4.06890187 5.54984289 6.70094266 5 10 C4.67 10 4.34 10 4 10 C4 7.69 4 5.38 4 3 C2.68 2.34 1.36 1.68 0 1 C0 0.67 0 0.34 0 0 Z " fill="#398A8B" transform="translate(105,59)"/>
<path d="M0 0 C1.32 0.33 2.64 0.66 4 1 C2.35 2.98 0.7 4.96 -1 7 C-2 4 -2 4 -1.0625 1.8125 C-0.5365625 0.9153125 -0.5365625 0.9153125 0 0 Z " fill="#314655" transform="translate(101,128)"/>
<path d="M0 0 C1.5 1.25 1.5 1.25 3 3 C3 4.32 3 5.64 3 7 C2.01 7 1.02 7 0 7 C0 4.69 0 2.38 0 0 Z " fill="#4E6352" transform="translate(88,103)"/>
<path d="M0 0 C1.65 0.99 3.3 1.98 5 3 C2.33333333 3.66666667 -0.33333333 4.33333333 -3 5 C-1.125 1.125 -1.125 1.125 0 0 Z " fill="#2D3F53" transform="translate(106,80)"/>
</svg>
